<svg width="202" height="41" viewBox="0 0 202 41" fill="none" xmlns="http://www.w3.org/2000/svg">
<path d="M47.9986 14.0435L46.7223 14.264C44.1197 14.7149 41.6988 15.403 39.4943 16.2132V9.235L38.8145 9.54159C37.2691 10.2353 35.804 10.9608 34.407 11.7252L34.3598 4.41405L33.6204 4.88712C30.0231 7.18453 26.724 9.79548 23.7773 12.67C20.9403 9.98693 17.7411 7.38292 14.2298 4.89961L13.4681 4.36133V11.9375C11.9476 11.0829 10.3869 10.3046 8.79424 9.60819L8.11446 9.3113L8.14636 15.7998C5.81566 14.9993 3.4697 14.4763 1.14454 14.2405L0 14.1239L9.15911 25.5721L9.11888 17.1927C10.6935 17.8073 12.1502 18.5079 13.4681 19.2307V26.485L13.5639 26.6126C16.2567 30.2377 23.3417 36.1352 23.6414 36.3849L23.948 36.6388L24.256 36.3863C24.5556 36.1394 31.6462 30.3029 34.3418 26.5363L34.5014 26.2658L34.4583 19.5123C35.6972 18.8602 37.0582 18.2165 38.5301 17.6214V25.6082L48 14.0435H47.9986ZM39.4943 17.244C41.3686 16.5379 43.408 15.9177 45.5874 15.4641L39.4943 22.9057V17.244ZM2.21278 15.3434C4.31735 15.6458 6.30677 16.1744 8.15191 16.8306L8.18105 22.803L2.21278 15.3434ZM33.3998 6.17872L33.4095 12.2829C31.2536 13.5204 29.2628 14.862 27.3899 16.3423C26.9821 15.8941 26.5631 15.4474 26.133 15.0007C25.5933 14.4416 25.037 13.8839 24.4668 13.3304C27.1541 10.7097 30.1243 8.33324 33.3998 6.17872ZM17.1751 20.3599C16.2733 19.7523 15.3577 19.1849 14.4337 18.6591V13.6189C16.2234 14.701 17.9547 15.8941 19.6168 17.1885C18.7719 18.2124 17.9561 19.2709 17.1751 20.3599ZM20.3673 17.7823C21.3093 18.5425 22.2277 19.3361 23.1211 20.1629C22.2582 21.0328 21.4161 21.9457 20.5907 22.9057C19.8262 22.2772 18.9481 21.5988 17.9658 20.9052C18.7344 19.8328 19.5335 18.7923 20.3673 17.7823ZM26.6463 16.943C25.671 17.7476 24.7263 18.5925 23.8079 19.4832C22.8936 18.6369 21.953 17.8239 20.9888 17.0442C21.885 15.9968 22.8173 14.9827 23.7898 14.0032C24.7956 14.9771 25.7487 15.958 26.6463 16.9444M26.5007 23.573C25.2077 24.6107 24.3142 25.45 23.8523 25.9037C23.4069 25.4375 22.5509 24.5802 21.3287 23.5286C22.1431 22.5824 22.9741 21.6835 23.8245 20.8261C24.7457 21.7084 25.6377 22.6241 26.4993 23.573M20.7016 24.268C22.4719 25.7955 23.4638 26.9053 23.4791 26.922L23.8301 27.3188L24.1921 26.9331C24.2074 26.9178 25.2423 25.8218 27.1444 24.2972C27.7492 24.9881 28.3389 25.6942 28.9118 26.417L23.9799 31.0798L18.9716 26.4503C19.5432 25.697 20.119 24.9714 20.7016 24.2694M24.5112 20.1491C25.4116 19.2778 26.3356 18.4524 27.2914 17.6658C28.2723 18.777 29.1823 19.8938 30.0203 21.012C29.9301 21.0716 29.8413 21.1299 29.7553 21.1882C28.8258 21.8097 27.992 22.4146 27.2609 22.975C26.3758 21.9984 25.4588 21.055 24.5112 20.1477M28.0364 17.0637C29.7179 15.7374 31.4992 14.5249 33.4109 13.3997L33.4192 18.9712C32.4786 19.4832 31.6129 19.9951 30.8291 20.489C29.9745 19.3472 29.0422 18.204 28.0364 17.0637ZM14.4337 6.23005C17.6273 8.53301 20.5255 10.915 23.0975 13.3429C22.594 13.8506 22.1014 14.3639 21.62 14.887C21.1511 15.3975 20.6905 15.9191 20.2383 16.4491C18.3834 15.0021 16.4439 13.6814 14.4337 12.4952V6.23005ZM10.5076 16.7071C10.0442 16.5101 9.57947 16.3228 9.11471 16.1466L9.08836 10.7943C10.5811 11.4727 12.042 12.2261 13.4681 13.0474V18.1264C12.4887 17.6047 11.4995 17.1303 10.5076 16.7071ZM16.6187 21.1479C15.8571 22.2467 15.1274 23.3746 14.4337 24.5316V19.7759C15.2217 20.2365 15.9514 20.6985 16.6187 21.1479ZM23.9521 35.3847C22.5787 34.2249 16.96 29.415 14.5294 26.2866C15.4326 24.6939 16.3926 23.1651 17.4095 21.6945C18.3612 22.3674 19.2186 23.0292 19.965 23.6451C19.281 24.4678 18.6068 25.3252 17.9381 26.2172L17.6773 26.5654L23.9882 32.3991L30.2159 26.5127L29.9454 26.1673C29.2878 25.3238 28.608 24.5011 27.906 23.7006C28.6094 23.161 29.4071 22.5838 30.2922 21.9914C30.3907 21.9262 30.4906 21.8596 30.5933 21.7917C31.6518 23.2664 32.5841 24.7439 33.3804 26.2172C30.9609 29.4483 25.3298 34.2332 23.9521 35.386M33.4289 24.3527C32.8171 23.3288 32.1415 22.3008 31.4021 21.2714C32.025 20.8802 32.6992 20.4779 33.422 20.0742L33.4289 24.3527ZM34.45 18.4288L34.4139 12.8268C35.7208 12.0957 37.0901 11.4006 38.5287 10.7347V16.5836C37.061 17.1622 35.6972 17.7906 34.45 18.4302" fill="#41444B"/>
<path d="M76.77 9.1H79.281V28H77.256L67.536 13.879V28H65.025V9.1H67.05L76.77 23.194V9.1ZM94.2588 14.5H96.6078V28H94.2588V25.678C93.0888 27.46 91.3878 28.351 89.1558 28.351C87.2658 28.351 85.6548 27.667 84.3228 26.299C82.9908 24.913 82.3248 23.23 82.3248 21.25C82.3248 19.27 82.9908 17.596 84.3228 16.228C85.6548 14.842 87.2658 14.149 89.1558 14.149C91.3878 14.149 93.0888 15.04 94.2588 16.822V14.5ZM89.4528 26.083C90.8208 26.083 91.9638 25.624 92.8818 24.706C93.7998 23.77 94.2588 22.618 94.2588 21.25C94.2588 19.882 93.7998 18.739 92.8818 17.821C91.9638 16.885 90.8208 16.417 89.4528 16.417C88.1028 16.417 86.9688 16.885 86.0508 17.821C85.1328 18.739 84.6738 19.882 84.6738 21.25C84.6738 22.618 85.1328 23.77 86.0508 24.706C86.9688 25.624 88.1028 26.083 89.4528 26.083ZM101.659 12.043C101.209 12.043 100.831 11.89 100.525 11.584C100.219 11.278 100.066 10.909 100.066 10.477C100.066 10.045 100.219 9.676 100.525 9.37C100.831 9.046 101.209 8.884 101.659 8.884C102.091 8.884 102.46 9.046 102.766 9.37C103.072 9.676 103.225 10.045 103.225 10.477C103.225 10.909 103.072 11.278 102.766 11.584C102.46 11.89 102.091 12.043 101.659 12.043ZM100.471 28.81V14.5H102.82V28.81C102.82 30.556 102.379 31.843 101.497 32.671C100.615 33.517 99.3187 33.877 97.6087 33.751V31.483C98.5987 31.573 99.3187 31.411 99.7687 30.997C100.237 30.583 100.471 29.854 100.471 28.81ZM117.783 26.299C116.397 27.667 114.714 28.351 112.734 28.351C110.754 28.351 109.071 27.667 107.685 26.299C106.317 24.931 105.633 23.248 105.633 21.25C105.633 19.252 106.317 17.569 107.685 16.201C109.071 14.833 110.754 14.149 112.734 14.149C114.714 14.149 116.397 14.833 117.783 16.201C119.169 17.569 119.862 19.252 119.862 21.25C119.862 23.248 119.169 24.931 117.783 26.299ZM112.734 26.056C114.084 26.056 115.218 25.597 116.136 24.679C117.054 23.761 117.513 22.618 117.513 21.25C117.513 19.882 117.054 18.739 116.136 17.821C115.218 16.903 114.084 16.444 112.734 16.444C111.402 16.444 110.277 16.903 109.359 17.821C108.441 18.739 107.982 19.882 107.982 21.25C107.982 22.618 108.441 23.761 109.359 24.679C110.277 25.597 111.402 26.056 112.734 26.056ZM129.686 16.768H126.095V24.085C126.095 24.751 126.221 25.228 126.473 25.516C126.743 25.786 127.148 25.93 127.688 25.948C128.228 25.948 128.894 25.93 129.686 25.894V28C127.634 28.27 126.131 28.108 125.177 27.514C124.223 26.902 123.746 25.759 123.746 24.085V16.768H121.073V14.5H123.746V11.422L126.095 10.72V14.5H129.686V16.768ZM151.635 9.1V11.476H146.046V28H143.562V11.476H138V9.1H151.635ZM162.603 14.5H164.952V28H162.603V25.678C161.433 27.46 159.732 28.351 157.5 28.351C155.61 28.351 153.999 27.667 152.667 26.299C151.335 24.913 150.669 23.23 150.669 21.25C150.669 19.27 151.335 17.596 152.667 16.228C153.999 14.842 155.61 14.149 157.5 14.149C159.732 14.149 161.433 15.04 162.603 16.822V14.5ZM157.797 26.083C159.165 26.083 160.308 25.624 161.226 24.706C162.144 23.77 162.603 22.618 162.603 21.25C162.603 19.882 162.144 18.739 161.226 17.821C160.308 16.885 159.165 16.417 157.797 16.417C156.447 16.417 155.313 16.885 154.395 17.821C153.477 18.739 153.018 19.882 153.018 21.25C153.018 22.618 153.477 23.77 154.395 24.706C155.313 25.624 156.447 26.083 157.797 26.083ZM168.511 28V8.29H170.86V28H168.511ZM175.631 12.043C175.181 12.043 174.803 11.89 174.497 11.584C174.191 11.278 174.038 10.909 174.038 10.477C174.038 10.045 174.191 9.676 174.497 9.37C174.803 9.046 175.181 8.884 175.631 8.884C176.063 8.884 176.432 9.046 176.738 9.37C177.044 9.676 177.197 10.045 177.197 10.477C177.197 10.909 177.044 11.278 176.738 11.584C176.432 11.89 176.063 12.043 175.631 12.043ZM174.443 28V14.5H176.792V28H174.443ZM194.956 14.149C196.468 14.149 197.692 14.644 198.628 15.634C199.564 16.606 200.032 17.929 200.032 19.603V28H197.683V19.684C197.683 18.64 197.413 17.83 196.873 17.254C196.333 16.678 195.613 16.39 194.713 16.39C193.705 16.39 192.895 16.732 192.283 17.416C191.689 18.082 191.392 19.108 191.392 20.494V28H189.043V19.684C189.043 18.64 188.782 17.83 188.26 17.254C187.756 16.678 187.063 16.39 186.181 16.39C185.191 16.39 184.363 16.732 183.697 17.416C183.049 18.1 182.725 19.126 182.725 20.494V28H180.376V14.5H182.725V16.309C183.643 14.869 184.984 14.149 186.748 14.149C188.566 14.149 189.889 14.914 190.717 16.444C191.653 14.914 193.066 14.149 194.956 14.149Z" fill="#667085"/>
</svg>
