<svg width="48" height="33" viewBox="0 0 48 33" fill="none" xmlns="http://www.w3.org/2000/svg">
<path d="M47.9986 10.0435L46.7223 10.264C44.1197 10.7149 41.6988 11.403 39.4943 12.2132V5.235L38.8145 5.54159C37.2691 6.23526 35.804 6.96083 34.407 7.72524L34.3598 0.414046L33.6204 0.887124C30.0231 3.18453 26.724 5.79548 23.7773 8.67001C20.9403 5.98693 17.7411 3.38292 14.2298 0.89961L13.4681 0.361328V7.9375C11.9476 7.08291 10.3869 6.30462 8.79424 5.60819L8.11446 5.3113L8.14636 11.7998C5.81566 10.9993 3.4697 10.4763 1.14454 10.2405L0 10.1239L9.15911 21.5721L9.11888 13.1927C10.6935 13.8073 12.1502 14.5079 13.4681 15.2307V22.485L13.5639 22.6126C16.2567 26.2377 23.3417 32.1352 23.6414 32.3849L23.948 32.6388L24.256 32.3863C24.5556 32.1394 31.6462 26.3029 34.3418 22.5363L34.5014 22.2658L34.4583 15.5123C35.6972 14.8602 37.0582 14.2165 38.5301 13.6214V21.6082L48 10.0435H47.9986ZM39.4943 13.244C41.3686 12.5379 43.408 11.9177 45.5874 11.4641L39.4943 18.9057V13.244ZM2.21278 11.3434C4.31735 11.6458 6.30677 12.1744 8.15191 12.8306L8.18105 18.803L2.21278 11.3434ZM33.3998 2.17872L33.4095 8.28295C31.2536 9.52044 29.2628 10.862 27.3899 12.3423C26.9821 11.8941 26.5631 11.4474 26.133 11.0007C25.5933 10.4416 25.037 9.88392 24.4668 9.33038C27.1541 6.70972 30.1243 4.33324 33.3998 2.17872ZM17.1751 16.3599C16.2733 15.7523 15.3577 15.1849 14.4337 14.6591V9.61894C16.2234 10.701 17.9547 11.8941 19.6168 13.1885C18.7719 14.2124 17.9561 15.2709 17.1751 16.3599ZM20.3673 13.7823C21.3093 14.5425 22.2277 15.3361 23.1211 16.1629C22.2582 17.0328 21.4161 17.9457 20.5907 18.9057C19.8262 18.2772 18.9481 17.5988 17.9658 16.9052C18.7344 15.8328 19.5335 14.7923 20.3673 13.7823ZM26.6463 12.943C25.671 13.7476 24.7263 14.5925 23.8079 15.4832C22.8936 14.6369 21.953 13.8239 20.9888 13.0442C21.885 11.9968 22.8173 10.9827 23.7898 10.0032C24.7956 10.9771 25.7487 11.958 26.6463 12.9444M26.5007 19.573C25.2077 20.6107 24.3142 21.45 23.8523 21.9037C23.4069 21.4375 22.5509 20.5802 21.3287 19.5286C22.1431 18.5824 22.9741 17.6835 23.8245 16.8261C24.7457 17.7084 25.6377 18.6241 26.4993 19.573M20.7016 20.268C22.4719 21.7955 23.4638 22.9053 23.4791 22.922L23.8301 23.3188L24.1921 22.9331C24.2074 22.9178 25.2423 21.8218 27.1444 20.2972C27.7492 20.9881 28.3389 21.6942 28.9118 22.417L23.9799 27.0798L18.9716 22.4503C19.5432 21.697 20.119 20.9714 20.7016 20.2694M24.5112 16.1491C25.4116 15.2778 26.3356 14.4524 27.2914 13.6658C28.2723 14.777 29.1823 15.8938 30.0203 17.012C29.9301 17.0716 29.8413 17.1299 29.7553 17.1882C28.8258 17.8097 27.992 18.4146 27.2609 18.975C26.3758 17.9984 25.4588 17.055 24.5112 16.1477M28.0364 13.0637C29.7179 11.7374 31.4992 10.5249 33.4109 9.39974L33.4192 14.9712C32.4786 15.4832 31.6129 15.9951 30.8291 16.489C29.9745 15.3472 29.0422 14.204 28.0364 13.0637ZM14.4337 2.23005C17.6273 4.53301 20.5255 6.91504 23.0975 9.34286C22.594 9.85062 22.1014 10.3639 21.62 10.887C21.1511 11.3975 20.6905 11.9191 20.2383 12.4491C18.3834 11.0021 16.4439 9.68137 14.4337 8.49521V2.23005ZM10.5076 12.7071C10.0442 12.5101 9.57947 12.3228 9.11471 12.1466L9.08836 6.79435C10.5811 7.47275 12.042 8.22607 13.4681 9.04736V14.1264C12.4887 13.6047 11.4995 13.1303 10.5076 12.7071ZM16.6187 17.1479C15.8571 18.2467 15.1274 19.3746 14.4337 20.5316V15.7759C15.2217 16.2365 15.9514 16.6985 16.6187 17.1479ZM23.9521 31.3847C22.5787 30.2249 16.96 25.415 14.5294 22.2866C15.4326 20.6939 16.3926 19.1651 17.4095 17.6945C18.3612 18.3674 19.2186 19.0292 19.965 19.6451C19.281 20.4678 18.6068 21.3252 17.9381 22.2172L17.6773 22.5654L23.9882 28.3991L30.2159 22.5127L29.9454 22.1673C29.2878 21.3238 28.608 20.5011 27.906 19.7006C28.6094 19.161 29.4071 18.5838 30.2922 17.9914C30.3907 17.9262 30.4906 17.8596 30.5933 17.7917C31.6518 19.2664 32.5841 20.7439 33.3804 22.2172C30.9609 25.4483 25.3298 30.2332 23.9521 31.386M33.4289 20.3527C32.8171 19.3288 32.1415 18.3008 31.4021 17.2714C32.025 16.8802 32.6992 16.4779 33.422 16.0742L33.4289 20.3527ZM34.45 14.4288L34.4139 8.82678C35.7208 8.09566 37.0901 7.40061 38.5287 6.73469V12.5836C37.061 13.1622 35.6972 13.7906 34.45 14.4302" fill="#41444B"/>
</svg>
